<svg width="64" height="64" viewBox="0 0 64 64" fill="none" xmlns="http://www.w3.org/2000/svg">
<rect x="0.5" y="0.5" width="63" height="63" rx="19.5" fill="#FFF5F0"/>
<rect x="0.5" y="0.5" width="63" height="63" rx="19.5" stroke="#FFD3B9"/>
<path d="M34.0246 44.1116C34.0605 40.4402 33.1297 37.4546 31.9457 37.443C30.7616 37.4314 29.7727 40.3983 29.7368 44.0697C29.7009 47.7411 30.6317 50.7268 31.8157 50.7383C32.9998 50.7499 33.9888 47.783 34.0246 44.1116Z" fill="#FF7A2E"/>
<path d="M27.1576 43.2777C29.1729 40.2086 30.0041 37.1937 29.0144 36.5438C28.0245 35.8939 25.5885 37.855 23.5733 40.9241C21.558 43.9933 20.7267 47.0081 21.7164 47.6581C22.7063 48.308 25.1423 46.3469 27.1576 43.2777Z" fill="#FF7A2E"/>
<path d="M21.8233 38.8744C25.1781 37.3823 27.5074 35.2955 27.0261 34.2136C26.5449 33.1317 23.4353 33.4643 20.0806 34.9566C16.7259 36.4487 14.3965 38.5355 14.8778 39.6174C15.359 40.6993 18.4687 40.3667 21.8233 38.8744Z" fill="#FF7A2E"/>
<path d="M26.6236 31.1796C26.8037 30.0093 24.008 28.6078 20.3792 28.0492C16.7503 27.4907 13.6625 27.9867 13.4824 29.157C13.3022 30.3273 16.098 31.7287 19.7268 32.2873C23.3557 32.8459 26.4435 32.3499 26.6236 31.1796Z" fill="#FF7A2E"/>
<path d="M27.9265 28.3916C28.7106 27.5044 27.1161 24.8141 24.3649 22.3827C21.6138 19.9512 18.7479 18.6994 17.9638 19.5867C17.1796 20.4739 18.7742 23.1643 21.5253 25.5957C24.2765 28.0271 27.1424 29.2789 27.9265 28.3916Z" fill="#FF7A2E"/>
<path d="M30.5211 26.7623C31.6605 26.4399 31.7737 23.3145 30.774 19.7816C29.7743 16.2488 28.0402 13.6462 26.9009 13.9686C25.7615 14.291 25.6483 17.4163 26.648 20.9492C27.6477 24.482 29.3818 27.0847 30.5211 26.7623Z" fill="#FF7A2E"/>
<path d="M37.5668 21.0591C38.636 17.5466 38.5845 14.4197 37.4517 14.0749C36.3189 13.73 34.5338 16.2979 33.4646 19.8104C32.3955 23.3229 32.447 26.4498 33.5798 26.7946C34.7126 27.1394 36.4977 24.5716 37.5668 21.0591Z" fill="#FF7A2E"/>
<path d="M42.6011 25.8052C45.3993 23.428 47.0461 20.7694 46.2794 19.867C45.5128 18.9646 42.6229 20.1602 39.8249 22.5373C37.0267 24.9145 35.3799 27.5731 36.1465 28.4755C36.9132 29.3779 39.803 28.1824 42.6011 25.8052Z" fill="#FF7A2E"/>
<path d="M44.2657 32.5215C47.9049 32.0347 50.7277 30.6886 50.5707 29.5149C50.4137 28.3413 47.3363 27.7846 43.6971 28.2714C40.058 28.7583 37.2351 30.1043 37.3921 31.278C37.5492 32.4516 40.6265 33.0084 44.2657 32.5215Z" fill="#FF7A2E"/>
<path d="M48.9603 39.9528C49.4628 38.8806 47.175 36.7484 43.8504 35.1903C40.5258 33.6322 37.4234 33.2384 36.9209 34.3105C36.4184 35.3828 38.7062 37.515 42.0308 39.0731C45.3554 40.6311 48.4579 41.025 48.9603 39.9528Z" fill="#FF7A2E"/>
<path d="M41.9671 47.8639C42.9695 47.2337 42.1978 44.203 40.2435 41.0947C38.2892 37.9865 35.8922 35.9778 34.8898 36.608C33.8874 37.2383 34.6591 40.269 36.6134 43.3772C38.5678 46.4855 40.9647 48.4943 41.9671 47.8639Z" fill="#FF7A2E"/>
</svg>
